# xmcd
#
# Track frame offsets:
#	150
#	11402
#	26554
#	38331
#	51158
#	64510
#	73812
#	87989
#	102091
#	112443
#	122645
#	133522
#	144399
#	154676
#	166603
#	181155
#	193532
#	204034
#	213561
#
# Disc length: 2965 seconds
#
# Revision: 1
# Processed by: cddbd v1.5.2PL0 Copyright (c) Steve Scherf et al.
# Submitted via: audiograbber 1.83.01
#
DISCID=fa0b9313
DTITLE=Lenoir, J.B. - Eisenhower Blues
DYEAR=1900
DGENRE=Blues
TTITLE0=Mama Talk To Your Daughter
TTITLE1=Man Watch Your Woman
TTITLE2=Eisenhower Blues
TTITLE3=If You Love Me
TTITLE4=Sitting Down Thinking
TTITLE5=Mama Your Daughter Is Going To Miss Me
TTITLE6=What Have I Done
TTITLE7=We Can't Go On This Way
TTITLE8=Give Me One More Shot
TTITLE9=Everybody Wants To Know
TTITLE10=J.b.'s Rock
TTITLE11=Low Down Dirty Shame
TTITLE12=Don't Touch My Head
TTITLE13=When I Am Drinking
TTITLE14=I've Been Down For So Long
TTITLE15=Daddy Talk To Your Son
TTITLE16=I Don't Know
TTITLE17=Good Looking Woman
TTITLE18=Voodoo Boogie
EXTD=
EXTT0=
EXTT1=
EXTT2=
EXTT3=
EXTT4=
EXTT5=
EXTT6=
EXTT7=
EXTT8=
EXTT9=
EXTT10=
EXTT11=
EXTT12=
EXTT13=
EXTT14=
EXTT15=
EXTT16=
EXTT17=
EXTT18=
PLAYORDER=
